<?xml version="1.0" encoding="UTF-8" standalone="no"?>
<svg
   version="1.0"
   width="48"
   height="48"
   viewBox="0 0 36.000001 36.000001"
   preserveAspectRatio="xMidYMid meet"
   id="svg1049"
   sodipodi:docname="favicon.svg"
   inkscape:version="1.1.2 (0a00cf5339, 2022-02-04)"
   xmlns:inkscape="http://www.inkscape.org/namespaces/inkscape"
   xmlns:sodipodi="http://sodipodi.sourceforge.net/DTD/sodipodi-0.dtd"
   xmlns="http://www.w3.org/2000/svg"
   xmlns:svg="http://www.w3.org/2000/svg">
  <defs
     id="defs1053" />
  <sodipodi:namedview
     id="namedview1051"
     pagecolor="#ffffff"
     bordercolor="#666666"
     borderopacity="1.0"
     inkscape:pageshadow="2"
     inkscape:pageopacity="0.0"
     inkscape:pagecheckerboard="0"
     inkscape:document-units="pt"
     showgrid="false"
     showguides="true"
     inkscape:guide-bbox="true"
     inkscape:zoom="8.5663042"
     inkscape:cx="-21.362772"
     inkscape:cy="-13.541429"
     inkscape:window-width="2560"
     inkscape:window-height="1366"
     inkscape:window-x="0"
     inkscape:window-y="25"
     inkscape:window-maximized="1"
     inkscape:current-layer="svg1049"
     units="px">
    <sodipodi:guide
       position="374.41107,620.10364"
       orientation="0,-1"
       id="guide1863" />
  </sodipodi:namedview>
  <metadata
     id="metadata1041">
Created by potrace 1.16, written by Peter Selinger 2001-2019
</metadata>
  <path
     id="rect52986"
     style="fill:#ffffff;fill-opacity:1;stroke:none;stroke-width:117.543"
     d="M 5.0151772,-0.00548725 V 36.06043 H 31.023478 V 8.3719539 l -9.263672,-8.37744115 z" />
  <path
     d="M 5.0151772,17.994719 V 35.994925 H 18.015326 31.015475 V 22.728106 9.4612878 H 29.815461 28.615447 V 21.528093 33.594897 l -10.580121,-0.01333 -10.5867876,-0.02 V 17.994719 2.4278739 l 6.5200746,-0.02 6.513408,-0.013334 V 1.1945265 -0.00548725 H 12.748599 5.0151772 Z"
     id="path1043"
     style="fill:#1b4b73;fill-opacity:1;stroke:none;stroke-width:0.00666674" />
  <path
     d="m 17.16865,9.6012894 c -3.160036,0.3066702 -5.400062,2.7000306 -6.10007,6.5134076 -0.193336,1.066679 -0.213336,3.580041 -0.03333,4.546719 0.260003,1.400016 0.740009,2.653364 1.386683,3.606708 0.360004,0.540006 1.240014,1.420016 1.746686,1.753353 0.893344,0.580007 1.880022,0.966678 2.973368,1.14668 0.560006,0.08667 0.946677,0.106668 2.033356,0.07333 1.753354,-0.04667 2.466695,-0.193335 3.953379,-0.800009 l 0.686674,-0.280003 V 24.914798 23.66145 l -0.313336,0.126669 c -0.180003,0.07333 -0.460006,0.186668 -0.640008,0.266669 -0.546673,0.233336 -1.380016,0.466672 -2.213358,0.606674 -0.926678,0.160002 -2.493362,0.193335 -3.160037,0.06667 -1.353348,-0.246669 -2.320026,-0.946677 -2.9267,-2.120024 -0.433338,-0.826676 -0.746675,-2.213359 -0.746675,-3.293371 v -0.386671 h 5.413395 5.406729 L 24.588735,17.54138 C 24.535401,15.874695 24.415399,15.008018 24.108729,14.074674 23.695391,12.807993 23.02205,11.754647 22.16204,11.021306 21.608701,10.547967 20.462021,9.94796 19.782013,9.767958 19.422009,9.6746236 18.061993,9.5146218 17.815324,9.534622 c -0.05333,0.00667 -0.346671,0.033334 -0.646674,0.066667 z m 1.933355,2.4600286 c 1.066679,0.333337 1.886688,1.286681 2.213359,2.566696 0.100001,0.406671 0.233336,1.426683 0.233336,1.813354 v 0.220002 h -3.833377 -3.833378 v -0.226669 c 0,-0.673341 0.353338,-1.986689 0.713342,-2.653364 0.26667,-0.500005 0.946677,-1.193347 1.400016,-1.440016 0.373338,-0.193336 0.913344,-0.373338 1.320015,-0.440005 0.380004,-0.05333 1.366682,0.03333 1.786687,0.160002 z"
     id="path1045"
     style="fill:#1b4b73;fill-opacity:1;stroke:none;stroke-width:0.00666674" />
  <path
     id="path1533"
     style="fill:#f47d21;fill-opacity:1;stroke:none;stroke-width:2.36418;stroke-miterlimit:4;stroke-dasharray:none"
     inkscape:transform-center-x="-22.960709"
     inkscape:transform-center-y="-0.14491219"
     d="M 31.021429,8.4145864 21.774686,0.01288484 21.74333,8.4121564 Z" />
</svg>
