<?xml version="1.0" encoding="UTF-8" standalone="no"?>
<svg
   version="1.0"
   width="48"
   height="48"
   viewBox="0 0 36.000001 36.000001"
   preserveAspectRatio="xMidYMid meet"
   id="svg1049"
   sodipodi:docname="favicon.svg"
   inkscape:version="1.1.2 (0a00cf5339, 2022-02-04)"
   xmlns:inkscape="http://www.inkscape.org/namespaces/inkscape"
   xmlns:sodipodi="http://sodipodi.sourceforge.net/DTD/sodipodi-0.dtd"
   xmlns="http://www.w3.org/2000/svg"
   xmlns:svg="http://www.w3.org/2000/svg">
  <defs
     id="defs1053" />
  <sodipodi:namedview
     id="namedview1051"
     pagecolor="#ffffff"
     bordercolor="#666666"
     borderopacity="1.0"
     inkscape:pageshadow="2"
     inkscape:pageopacity="0.0"
     inkscape:pagecheckerboard="0"
     inkscape:document-units="pt"
     showgrid="false"
     showguides="true"
     inkscape:guide-bbox="true"
     inkscape:zoom="24.229167"
     inkscape:cx="23.979364"
     inkscape:cy="23.896819"
     inkscape:window-width="2560"
     inkscape:window-height="1366"
     inkscape:window-x="0"
     inkscape:window-y="25"
     inkscape:window-maximized="1"
     inkscape:current-layer="svg1049"
     units="px">
    <sodipodi:guide
       position="374.41107,620.10364"
       orientation="0,-1"
       id="guide1863" />
  </sodipodi:namedview>
  <metadata
     id="metadata1041">
Created by potrace 1.16, written by Peter Selinger 2001-2019
</metadata>
  <g
     id="g1941"
     transform="matrix(0.06666743,0,0,0.06666743,5.0151772,-0.20548954)">
    <path
       d="M 0,273 V 543 H 195 390 V 344 145 H 372 354 V 326 507 L 195.3,506.8 36.5,506.5 V 273 39.5 L 134.3,39.2 232,39 V 21 3 H 116 0 Z"
       id="path1043"
       style="fill:#1b4b73;fill-opacity:1;stroke:none;stroke-width:0.1" />
    <path
       d="m 182.3,147.1 c -47.4,4.6 -81,40.5 -91.5,97.7 -2.9,16 -3.2,53.7 -0.5,68.2 3.9,21 11.1,39.8 20.8,54.1 5.4,8.1 18.6,21.3 26.2,26.3 13.4,8.7 28.2,14.5 44.6,17.2 8.4,1.3 14.2,1.6 30.5,1.1 26.3,-0.7 37,-2.9 59.3,-12 L 282,395.5 V 376.8 358 l -4.7,1.9 c -2.7,1.1 -6.9,2.8 -9.6,4 -8.2,3.5 -20.7,7 -33.2,9.1 -13.9,2.4 -37.4,2.9 -47.4,1 -20.3,-3.7 -34.8,-14.2 -43.9,-31.8 C 136.7,329.8 132,309 132,292.8 V 287 h 81.2 81.1 l -0.7,-20.8 c -0.8,-25 -2.6,-38 -7.2,-52 -6.2,-19 -16.3,-34.8 -29.2,-45.8 -8.3,-7.1 -25.5,-16.1 -35.7,-18.8 -5.4,-1.4 -25.8,-3.8 -29.5,-3.5 -0.8,0.1 -5.2,0.5 -9.7,1 z m 29,36.9 c 16,5 28.3,19.3 33.2,38.5 1.5,6.1 3.5,21.4 3.5,27.2 V 253 H 190.5 133 v -3.4 c 0,-10.1 5.3,-29.8 10.7,-39.8 4,-7.5 14.2,-17.9 21,-21.6 5.6,-2.9 13.7,-5.6 19.8,-6.6 5.7,-0.8 20.5,0.5 26.8,2.4 z"
       id="path1045"
       style="fill:#1b4b73;fill-opacity:1;stroke:none;stroke-width:0.1" />
    <path
       id="path1533"
       style="fill:#f47d21;fill-opacity:1;stroke:none;stroke-width:35.4623;stroke-miterlimit:4;stroke-dasharray:none"
       inkscape:transform-center-x="-22.960709"
       inkscape:transform-center-y="-0.14491219"
       d="M 390.08931,130.22828 251.38976,4.2042011 250.91942,130.19183 Z" />
  </g>
</svg>
