<?xml version="1.0" encoding="UTF-8" standalone="no"?>
<!-- Uploaded to: SVG Repo, www.svgrepo.com, Generator: SVG Repo Mixer Tools -->

<svg
   width="30"
   height="30"
   viewBox="0 -0.5 0.9375 0.9375"
   fill="none"
   version="1.1"
   id="svg51"
   sodipodi:docname="action_unpack.svg"
   inkscape:version="1.1.2 (0a00cf5339, 2022-02-04)"
   xmlns:inkscape="http://www.inkscape.org/namespaces/inkscape"
   xmlns:sodipodi="http://sodipodi.sourceforge.net/DTD/sodipodi-0.dtd"
   xmlns="http://www.w3.org/2000/svg"
   xmlns:svg="http://www.w3.org/2000/svg">
  <defs
     id="defs55" />
  <sodipodi:namedview
     id="namedview53"
     pagecolor="#ffffff"
     bordercolor="#666666"
     borderopacity="1.0"
     inkscape:pageshadow="2"
     inkscape:pageopacity="0.0"
     inkscape:pagecheckerboard="0"
     showgrid="false"
     inkscape:zoom="16.376593"
     inkscape:cx="33.523456"
     inkscape:cy="21.249841"
     inkscape:window-width="2560"
     inkscape:window-height="1416"
     inkscape:window-x="2560"
     inkscape:window-y="0"
     inkscape:window-maximized="1"
     inkscape:current-layer="svg51" />
  <path
     d="m 0.50465723,-0.11633909 c 0,-0.0249679 -0.0153648,-0.0450515 -0.0343176,-0.0448551 -0.0189518,1.9644e-4 -0.0343177,0.020598 -0.0343177,0.0455665 z M 0.47033953,0.390375 0.43602183,0.39073073 c 0,0.0150044 0.005642,0.0289666 0.0150771,0.0372839 0.009426,0.008311 0.0214135,0.009886 0.0319842,0.00421 z m 0.32029779,-0.17210621 0.0127437,0.0418474 c 0.0130313,-0.007002 0.0215751,-0.0237152 0.0215751,-0.0422031 z m 0.0343177,-0.35124999 c 0,-0.0249691 -0.0153648,-0.0450515 -0.0343177,-0.044855 -0.0189529,1.9645e-4 -0.0343176,0.0205974 -0.0343176,0.0455665 z m -0.33385099,-0.019211 c -0.0150904,-0.0149539 -0.036619,-0.010863 -0.0480859,0.009136 -0.0114724,0.0199998 -0.00853,0.04833131 0.006561,0.06328095 z m 0.093627,0.14955655 -0.0207642,0.03620905 c 0.010179,0.01009336 0.0238255,0.01183888 0.0353975,0.0045352 z M 0.8052698,-0.09188266 C 0.8224103,-0.10270533 0.8297592,-0.12972135 0.8216779,-0.15222497 0.8136009,-0.17472514 0.793149,-0.18419283 0.776004,-0.17336918 Z M 0.45759568,-0.15782834 c -0.0175975,0.009457 -0.026159,0.0358584 -0.0191222,0.05896341 0.007038,0.02311135 0.0270153,0.03418278 0.0446084,0.02472888 z m 0.34578425,-0.0884161 c 0.0175986,-0.009456 0.026159,-0.035856 0.0191222,-0.0589659 -0.007038,-0.0231105 -0.0270153,-0.0341795 -0.0446084,-0.024724 z m -0.0254863,2.6419e-4 c 0.0175942,0.009091 0.0375661,-0.002392 0.0446084,-0.0256487 0.007038,-0.0232555 -0.001527,-0.0494781 -0.0191222,-0.0585695 z M 0.48308282,-0.49566481 c -0.0175931,-0.009092 -0.0375661,0.002391 -0.0446084,0.0256487 -0.007038,0.0232556 0.001527,0.0494782 0.0191222,0.0585694 z m 0.32432435,0.16795494 c -0.0165408,-0.0120281 -0.0374522,-0.004046 -0.0467128,0.017841 -0.009261,0.0218812 -0.003364,0.049371 0.0131741,0.0613999 z m 0.0976223,0.12282766 0.0146378,0.0407399 c 0.0116229,-0.007343 0.0192085,-0.0225929 0.0196566,-0.0395168 4.4333e-4,-0.0169248 -0.006317,-0.0326867 -0.0175245,-0.0408432 z m -0.12902961,0.0315171 c -0.0171451,0.0108285 -0.024485,0.037848 -0.0163993,0.0603453 0.008077,0.02250336 0.0285333,0.03196023 0.0456739,0.02113108 z M 0.13729676,-0.3232945 c -0.0175975,0.009457 -0.0261568,0.0358561 -0.0191188,0.0589659 0.007038,0.0231102 0.0270109,0.0341795 0.0446084,0.0247239 z m 0.34578602,-0.0884162 c 0.0175986,-0.009457 0.026159,-0.0358561 0.0191222,-0.0589659 -0.007038,-0.0231102 -0.0270153,-0.0341795 -0.0446084,-0.0247239 z m -0.31627331,0.16953382 c 0.0165364,-0.0123715 0.0224359,-0.0399833 0.0131752,-0.061673 -0.009261,-0.0216905 -0.0301741,-0.0292441 -0.0467105,-0.0168726 z m -0.13115966,0.0463061 -0.0167677,-0.039273 c -0.01121242,0.008388 -0.0179781379,0.0242908 -0.01752894,0.0412065 4.4323e-4,0.0169152 0.00803258,0.0320085 0.01965877,0.0391092 z m 0.09975431,0.11092546 c 0.0171429,0.01047449 0.0375926,5.9285e-4 0.0456772,-0.02207812 0.008088,-0.022665 7.4163e-4,-0.0495327 -0.0164004,-0.0600053 z m 0.0273837,-0.23861347 c -0.0175975,-0.009092 -0.0375694,0.002391 -0.0446084,0.0256487 -0.007038,0.0232555 0.001516,0.0494782 0.0191188,0.0585695 z m 0.29480909,0.24968698 c 0.0175942,0.0090881 0.0375661,-0.0023979 0.0446084,-0.02565365 0.007038,-0.02325111 -0.001527,-0.04947479 -0.0191222,-0.05856701 z m 0.0470614,-0.04246723 c 0,-0.0249685 -0.0153649,-0.0450515 -0.0343177,-0.0448551 -0.0189517,1.9644e-4 -0.0343176,0.020598 -0.0343176,0.0455665 z m -0.0343189,0.50671423 -0.0127438,0.0421115 c 0.0105663,0.00546 0.0225531,0.003635 0.0319842,-0.004874 0.009426,-0.008515 0.0150771,-0.0225927 0.0150771,-0.0375965 z m -0.3202976,-0.16546634 -0.0343176,3.5571e-4 c 0,0.018489 0.008541,0.0350248 0.0215729,0.0417558 z m 0.0343177,-0.35124999 c 0,-0.0249691 -0.0153649,-0.0450515 -0.0343177,-0.044855 -0.0189529,1.9645e-4 -0.0343176,0.0205974 -0.0343176,0.0455665 z M 0.491104,-0.08020471 c 0.0150904,-0.01526292 0.0180279,-0.04365594 0.006561,-0.06341725 -0.0114658,-0.0197609 -0.0329955,-0.0234061 -0.0480859,-0.008139 z M 0.35594763,-2.6404382e-4 0.34131633,0.04078193 c 0.0115709,0.0070655 0.0252119,0.0050394 0.0353953,-0.0052683 z M 0.16467315,-0.16703273 c -0.017144,-0.0104672 -0.0375926,-5.7646e-4 -0.0456739,0.0220911 -0.008077,0.0226708 -7.2504e-4,0.04953412 0.0164115,0.06000201 z m 0.27134888,0.0514048 V 0.3907305 l 0.0686353,-7.1143e-4 V -0.11633909 Z M 0.48308337,0.43222233 0.80338104,0.26011628 0.77789478,0.17642137 0.45759701,0.34852759 Z M 0.82495545,0.217913 v -0.35089425 l -0.0686353,7.1143e-4 V 0.21862443 Z M 0.44957561,-0.07977454 0.56396779,0.03357319 0.60549706,-0.0388446 0.49110498,-0.15219234 Z M 0.59936519,0.03810705 0.8052709,-0.0918828 0.77600509,-0.17336947 0.57009927,-0.04337846 Z M 0.48308282,-0.07413592 0.80338048,-0.2462445 0.777894,-0.32993454 0.45759634,-0.15782837 Z m 0.32029766,-0.25606279 -0.32029766,-0.1654661 -0.0254863,0.0842183 0.32029777,0.1654661 z m -0.0295136,0.0817295 0.11439207,0.0832075 0.0335399,-0.0792407 -0.11439195,-0.0832073 z m 0.11652436,0.002847 -0.11439207,0.0722568 0.0292747,0.08147638 0.11439196,-0.07225372 z m -0.72760485,0.006019 0.32029589,-0.17210616 -0.0254863,-0.0836899 -0.32029942,0.17210617 z m -0.0295124,-0.0811178 -0.11439208,0.0855789 0.03353543,0.0785454 0.11439195,-0.0855788 z m -0.11226262,0.16589474 0.11439207,0.06988231 0.0292758,-0.08208328 -0.11439196,-0.0698852 z m 0.11628501,-0.0845139 0.32029943,0.16546848 0.0254862,-0.0842208 -0.32029588,-0.16546618 z m 0.29872523,0.12371258 v 0.50635842 l 0.0686353,-7.1144e-4 V -0.11633908 Z M 0.48308181,0.34826348 0.16278593,0.18279724 0.13729643,0.26702061 0.45759585,0.43248657 Z M 0.18435924,0.22455391 v -0.35089507 l -0.0686352,7.1143e-4 v 0.35089426 z m 0.26521571,-0.3763149 -0.11439251,0.11571918 0.0415293,0.07155685 0.11439163,-0.11571915 z m -0.0789968,0.11045153 -0.2059057,-0.12572245 -0.0292625,0.0820935 0.2059057,0.12572127 z"
     fill="#000000"
     id="path49"
     style="stroke-width:0.0525191;fill:#1b4b73;fill-opacity:1" />
</svg>
