<?xml version="1.0" encoding="UTF-8" standalone="no"?>
<!-- Created with Inkscape (http://www.inkscape.org/) -->

<svg
   width="30"
   height="30"
   viewBox="0 0 7.9375 7.9375"
   version="1.1"
   id="svg8056"
   inkscape:version="1.1.2 (0a00cf5339, 2022-02-04)"
   sodipodi:docname="action_deposit.svg"
   xmlns:inkscape="http://www.inkscape.org/namespaces/inkscape"
   xmlns:sodipodi="http://sodipodi.sourceforge.net/DTD/sodipodi-0.dtd"
   xmlns="http://www.w3.org/2000/svg"
   xmlns:svg="http://www.w3.org/2000/svg">
  <sodipodi:namedview
     id="namedview8058"
     pagecolor="#ffffff"
     bordercolor="#666666"
     borderopacity="1.0"
     inkscape:pageshadow="2"
     inkscape:pageopacity="0.0"
     inkscape:pagecheckerboard="0"
     inkscape:document-units="mm"
     showgrid="false"
     units="px"
     inkscape:zoom="27.495105"
     inkscape:cx="-1.636655"
     inkscape:cy="12.984129"
     inkscape:window-width="2560"
     inkscape:window-height="1366"
     inkscape:window-x="0"
     inkscape:window-y="25"
     inkscape:window-maximized="1"
     inkscape:current-layer="layer1" />
  <defs
     id="defs8053" />
  <g
     inkscape:label="Layer 1"
     inkscape:groupmode="layer"
     id="layer1">
    <path
       d="M 5.8317973,6.2945671 C 7.0687452,5.8357726 7.9501871,4.6453023 7.9501871,3.2489784 c 0,-1.7934986 -1.4542475,-3.24741569 -3.2481176,-3.24741569 -1.7938871,0 -3.2481183,1.45391709 -3.2481183,3.24741569 0,1.7934828 1.4542312,3.2474158 3.2481183,3.2474158 0.3611255,0 0.7084791,-0.058908 1.0329659,-0.1676641 0.010223,-0.00189 0.020494,-0.00429 0.030695,-0.00721 0.023422,-0.00669 0.045506,-0.015783 0.066067,-0.026954 z M 4.7020695,0.6510462 c -0.542858,0 -1.0468104,0.1664199 -1.4636381,0.4510175 0.00132,0.011851 0.002,0.023895 0.002,0.036097 v 1.1431848 c 0,0.142763 0.093257,0.2687824 0.2298011,0.3105409 L 3.8894312,2.7200732 3.8326833,2.3796629 C 3.7479143,1.8711502 4.0740575,1.3846421 4.5767361,1.2697708 L 4.7071155,1.2399778 C 4.8318111,1.2114808 4.9281502,1.1124816 4.9532254,0.9870889 L 5.0166944,0.6698973 C 4.9135657,0.65745431 4.8085546,0.65104831 4.702081,0.65104831 Z M 2.5907928,2.2813428 V 1.7341502 c -0.3066352,0.426428 -0.4872179,0.9495509 -0.4872179,1.5148282 0,1.4348059 1.163385,2.5979328 2.5984946,2.5979328 0.1965759,0 0.388085,-0.021823 0.5721556,-0.063193 L 5.0856397,5.1237123 C 5.0704707,5.0706503 5.0420157,5.0223275 5.0029747,4.983294 L 4.6006953,4.5811016 C 4.3953495,4.3758321 4.4140912,4.0376462 4.6408409,3.8563103 L 5.1489114,3.449929 C 5.3467544,3.2916824 5.6186218,3.2628777 5.8452429,3.37618 l 0.4775706,0.2387502 c 0.2914213,0.1456788 0.490726,0.4273274 0.5311321,0.7505426 l 0.035794,0.2860643 c 0.260013,-0.4045628 0.4108228,-0.88596 0.4108228,-1.4025587 0,-1.1013283 -0.68545,-2.042595 -1.6530966,-2.42063639 L 5.5902338,1.1144586 C 5.5149748,1.4906396 5.2259246,1.7876447 4.8518392,1.8731295 L 4.7214593,1.9029205 C 4.5539216,1.941212 4.4452073,2.1033838 4.4734658,2.2728863 l 0.056742,0.340411 C 4.609527,3.0890767 4.1607347,3.482241 3.6994011,3.3411735 L 3.2801997,3.2129655 C 2.8705564,3.08768 2.59079,2.7096158 2.59079,2.2813436 Z M 6.3144349,5.2864395 C 6.1816843,5.3915914 6.0384099,5.4840449 5.8864955,5.5619503 L 5.7102525,4.9452987 C 5.6647465,4.7861102 5.5794506,4.6411131 5.4623236,4.5240437 L 5.1883452,4.2501243 5.5547324,3.9571104 6.0323031,4.1958274 c 0.097152,0.048581 0.1635752,0.1424645 0.1770551,0.2501811 z"
       id="形状"
       fill="#09244b"
       style="fill:#1b4b73;fill-opacity:1;fill-rule:evenodd;stroke:none;stroke-width:0.324778" />
    <g
       id="g8460"
       transform="matrix(0.90184337,0,0,0.90184337,0.11270244,0.62694973)"
       style="stroke-width:0.856965;stroke-miterlimit:4;stroke-dasharray:none">
      <path
         style="fill:none;fill-rule:evenodd;stroke:#1b4b73;stroke-width:0.856965;stroke-linecap:round;stroke-linejoin:miter;stroke-miterlimit:4;stroke-dasharray:none;stroke-opacity:1"
         d="M 0.30607246,7.6215027 4.1575854,3.7740277"
         id="path3384"
         inkscape:connector-type="polyline"
         inkscape:connector-curvature="0" />
      <path
         style="fill:none;fill-rule:evenodd;stroke:#1b4b73;stroke-width:0.856965;stroke-linecap:round;stroke-linejoin:miter;stroke-miterlimit:4;stroke-dasharray:none;stroke-opacity:1"
         d="M 4.1588654,4.7522852 4.1575854,3.7740277"
         id="path3384-6-2"
         inkscape:connector-type="polyline"
         inkscape:connector-curvature="0" />
      <path
         style="fill:none;fill-rule:evenodd;stroke:#1b4b73;stroke-width:0.856965;stroke-linecap:round;stroke-linejoin:miter;stroke-miterlimit:4;stroke-dasharray:none;stroke-opacity:1"
         d="m 3.1793278,3.7753077 0.9782576,-0.00128"
         id="path3384-6-2-4"
         inkscape:connector-type="polyline"
         inkscape:connector-curvature="0" />
    </g>
  </g>
</svg>
