<?xml version="1.0" encoding="UTF-8" standalone="no"?>
<svg
   width="30"
   height="30"
   fill="#1b4b73"
   class="bi bi-files-alt"
   viewBox="0 0 16 16"
   version="1.1"
   id="svg1163"
   sodipodi:docname="action_convert.svg"
   inkscape:version="1.1.2 (0a00cf5339, 2022-02-04)"
   xmlns:inkscape="http://www.inkscape.org/namespaces/inkscape"
   xmlns:sodipodi="http://sodipodi.sourceforge.net/DTD/sodipodi-0.dtd"
   xmlns="http://www.w3.org/2000/svg"
   xmlns:svg="http://www.w3.org/2000/svg">
  <defs
     id="defs1167">
    <marker
       style="overflow:visible"
       id="TriangleOutS"
       refX="0.0"
       refY="0.0"
       orient="auto"
       inkscape:stockid="TriangleOutS"
       inkscape:isstock="true">
      <path
         transform="scale(0.2)"
         style="fill-rule:evenodd;fill:context-stroke;stroke:context-stroke;stroke-width:1.0pt"
         d="M 5.77,0.0 L -2.88,5.0 L -2.88,-5.0 L 5.77,0.0 z "
         id="path3671" />
    </marker>
    <marker
       style="overflow:visible"
       id="TriangleOutM"
       refX="0.0"
       refY="0.0"
       orient="auto"
       inkscape:stockid="TriangleOutM"
       inkscape:isstock="true">
      <path
         transform="scale(0.4)"
         style="fill-rule:evenodd;fill:context-stroke;stroke:context-stroke;stroke-width:1.0pt"
         d="M 5.77,0.0 L -2.88,5.0 L -2.88,-5.0 L 5.77,0.0 z "
         id="path3668" />
    </marker>
    <marker
       style="overflow:visible;"
       id="Arrow2Mend"
       refX="0.0"
       refY="0.0"
       orient="auto"
       inkscape:stockid="Arrow2Mend"
       inkscape:isstock="true">
      <path
         transform="scale(0.6) rotate(180) translate(0,0)"
         d="M 8.7185878,4.0337352 L -2.2072895,0.016013256 L 8.7185884,-4.0017078 C 6.9730900,-1.6296469 6.9831476,1.6157441 8.7185878,4.0337352 z "
         style="stroke:context-stroke;fill-rule:evenodd;fill:context-stroke;stroke-width:0.62500000;stroke-linejoin:round;"
         id="path3550" />
    </marker>
    <marker
       style="overflow:visible;"
       id="marker3817"
       refX="0.0"
       refY="0.0"
       orient="auto"
       inkscape:stockid="Arrow2Send"
       inkscape:isstock="true">
      <path
         transform="scale(0.3) rotate(180) translate(-2.3,0)"
         d="M 8.7185878,4.0337352 L -2.2072895,0.016013256 L 8.7185884,-4.0017078 C 6.9730900,-1.6296469 6.9831476,1.6157441 8.7185878,4.0337352 z "
         style="stroke:context-stroke;fill-rule:evenodd;fill:context-stroke;stroke-width:0.62500000;stroke-linejoin:round;"
         id="path3815" />
    </marker>
    <marker
       style="overflow:visible"
       id="EmptyTriangleOutS"
       refX="0.0"
       refY="0.0"
       orient="auto"
       inkscape:stockid="EmptyTriangleOutS"
       inkscape:isstock="true">
      <path
         transform="scale(0.2) translate(-3.0,0)"
         style="fill-rule:evenodd;fill:context-fill;stroke:context-stroke;stroke-width:1.0pt"
         d="M 5.77,0.0 L -2.88,5.0 L -2.88,-5.0 L 5.77,0.0 z "
         id="path3689" />
    </marker>
    <marker
       style="overflow:visible"
       id="TriangleOutL"
       refX="0.0"
       refY="0.0"
       orient="auto"
       inkscape:stockid="TriangleOutL"
       inkscape:isstock="true">
      <path
         transform="scale(0.8)"
         style="fill-rule:evenodd;fill:context-stroke;stroke:context-stroke;stroke-width:1.0pt"
         d="M 5.77,0.0 L -2.88,5.0 L -2.88,-5.0 L 5.77,0.0 z "
         id="path3665" />
    </marker>
    <marker
       style="overflow:visible;"
       id="Arrow2Send"
       refX="0.0"
       refY="0.0"
       orient="auto"
       inkscape:stockid="Arrow2Send"
       inkscape:isstock="true">
      <path
         transform="scale(0.3) rotate(180) translate(-2.3,0)"
         d="M 8.7185878,4.0337352 L -2.2072895,0.016013256 L 8.7185884,-4.0017078 C 6.9730900,-1.6296469 6.9831476,1.6157441 8.7185878,4.0337352 z "
         style="stroke:context-stroke;fill-rule:evenodd;fill:context-stroke;stroke-width:0.62500000;stroke-linejoin:round;"
         id="path3556" />
    </marker>
    <marker
       style="overflow:visible;"
       id="Arrow1Send"
       refX="0.0"
       refY="0.0"
       orient="auto"
       inkscape:stockid="Arrow1Send"
       inkscape:isstock="true">
      <path
         transform="scale(0.2) rotate(180) translate(6,0)"
         style="fill-rule:evenodd;fill:context-stroke;stroke:context-stroke;stroke-width:1.0pt;"
         d="M 0.0,0.0 L 5.0,-5.0 L -12.5,0.0 L 5.0,5.0 L 0.0,0.0 z "
         id="path3538" />
    </marker>
  </defs>
  <sodipodi:namedview
     id="namedview1165"
     pagecolor="#ffffff"
     bordercolor="#666666"
     borderopacity="1.0"
     inkscape:pageshadow="2"
     inkscape:pageopacity="0.0"
     inkscape:pagecheckerboard="0"
     showgrid="false"
     showguides="true"
     inkscape:guide-bbox="true"
     inkscape:zoom="16.074894"
     inkscape:cx="14.681279"
     inkscape:cy="15.614411"
     inkscape:window-width="2560"
     inkscape:window-height="1366"
     inkscape:window-x="0"
     inkscape:window-y="25"
     inkscape:window-maximized="1"
     inkscape:current-layer="svg1163">
    <sodipodi:guide
       position="12.187683,7.9765395"
       orientation="1,0"
       id="guide1935" />
    <sodipodi:guide
       position="3.8154736,11.587322"
       orientation="1,0"
       id="guide2703" />
  </sodipodi:namedview>
  <g
     id="g2036"
     transform="translate(-0.05151009,3.8491054)"
     style="stroke-width:1.01333333;stroke-miterlimit:4;stroke-dasharray:none">
    <path
       style="fill:none;fill-rule:evenodd;stroke:#1b4b73;stroke-width:1.01333333;stroke-linecap:round;stroke-linejoin:miter;stroke-miterlimit:4;stroke-dasharray:none;stroke-opacity:1"
       d="M 2.3046458,1.5035901 5.3834666,4.5852326"
       id="path3384-8"
       inkscape:connector-type="polyline"
       inkscape:connector-curvature="0" />
    <path
       style="fill:none;fill-rule:evenodd;stroke:#1b4b73;stroke-width:1.01333333;stroke-linecap:round;stroke-linejoin:miter;stroke-miterlimit:4;stroke-dasharray:none;stroke-opacity:1"
       d="M 5.3725171,1.504053 2.2936962,4.5856955"
       id="path3384-8-2"
       inkscape:connector-type="polyline"
       inkscape:connector-curvature="0" />
  </g>
  <path
     id="path3940-8-8-8"
     style="stroke-width:0.755451"
     d="M 0.7797448,0.02414773 A 0.75545525,0.75545525 0 0 0 0.02349467,0.77935639 V 9.844982 A 0.75545525,0.75545525 0 0 0 0.7797448,10.60019 H 6.8224531 A 0.75545525,0.75545525 0 0 0 7.5776614,9.844982 V 0.77935639 A 0.75545525,0.75545525 0 0 0 6.8224531,0.02414773 Z M 1.5995367,1.0595651 H 5.9912028 A 0.54896448,0.60425333 0 0 1 6.5401612,1.6637315 V 8.9147731 A 0.54896448,0.60425333 0 0 1 5.9912028,9.51894 H 1.5995367 A 0.54896448,0.60425333 0 0 1 1.0505784,8.9147731 V 1.6637315 A 0.54896448,0.60425333 0 0 1 1.5995367,1.0595651 Z" />
  <path
     id="path3940-8-8-8-2"
     style="stroke-width:0.755451"
     d="M 9.2090433,5.4390637 A 0.75545525,0.75545525 0 0 0 8.4527932,6.1942724 v 9.0656256 a 0.75545525,0.75545525 0 0 0 0.7562501,0.755208 H 15.251752 A 0.75545525,0.75545525 0 0 0 16.00696,15.259898 V 6.1942724 A 0.75545525,0.75545525 0 0 0 15.251752,5.4390637 Z m 0.8197917,1.0354174 h 4.391666 a 0.54896448,0.60425333 0 0 1 0.548959,0.6041664 v 7.2510415 a 0.54896448,0.60425333 0 0 1 -0.548959,0.604167 H 10.028835 A 0.54896448,0.60425333 0 0 1 9.4798769,14.329689 V 7.0786475 A 0.54896448,0.60425333 0 0 1 10.028835,6.4744811 Z" />
  <g
     id="g2042"
     transform="translate(0,-0.44574779)"
     style="stroke-width:1.01333333;stroke-miterlimit:4;stroke-dasharray:none">
    <g
       id="g1911"
       transform="translate(-0.07874359,3.6061762)"
       style="stroke-width:1.01333333;stroke-miterlimit:4;stroke-dasharray:none">
      <path
         style="fill:none;fill-rule:evenodd;stroke:#1b4b73;stroke-width:1.01333333;stroke-linecap:round;stroke-linejoin:miter;stroke-miterlimit:4;stroke-dasharray:none;stroke-opacity:1"
         d="m 10.552848,6.7490085 1.690759,1.6923083"
         id="path3384-8-1"
         inkscape:connector-type="polyline"
         inkscape:connector-curvature="0" />
      <path
         style="fill:none;fill-rule:evenodd;stroke:#1b4b73;stroke-width:1.01333333;stroke-linecap:round;stroke-linejoin:miter;stroke-miterlimit:4;stroke-dasharray:none;stroke-opacity:1"
         d="m 12.290527,8.4413168 -0.0042,2.3921862"
         id="path3384-8-1-3"
         inkscape:connector-type="polyline"
         inkscape:connector-curvature="0" />
      <path
         style="fill:none;fill-rule:evenodd;stroke:#1b4b73;stroke-width:1.01333333;stroke-linecap:round;stroke-linejoin:miter;stroke-miterlimit:4;stroke-dasharray:none;stroke-opacity:1"
         d="M 14.012509,6.7535663 12.284113,8.483546"
         id="path3384-8-2-2"
         inkscape:connector-type="polyline"
         inkscape:connector-curvature="0" />
    </g>
  </g>
  <path
     style="fill:none;fill-rule:evenodd;stroke:#1b4b73;stroke-width:1.01333333;stroke-linecap:round;stroke-linejoin:miter;stroke-miterlimit:4;stroke-dasharray:none;stroke-opacity:1"
     d="M 3.8154736,2.8884508 12.140775,2.8504758"
     id="path3384"
     inkscape:connector-type="polyline"
     inkscape:connector-curvature="0" />
  <path
     style="fill:none;fill-rule:evenodd;stroke:#1b4b73;stroke-width:1.01333333;stroke-linecap:round;stroke-linejoin:miter;stroke-miterlimit:4;stroke-dasharray:none;stroke-opacity:1"
     d="m 12.154443,2.8791608 0.03324,6.2109665"
     id="path3384-6"
     inkscape:connector-type="polyline"
     inkscape:connector-curvature="0" />
  <path
     style="fill:none;fill-rule:evenodd;stroke:#1b4b73;stroke-width:1.01333333;stroke-linecap:round;stroke-linejoin:miter;stroke-miterlimit:4;stroke-dasharray:none;stroke-opacity:1"
     d="M 13.58962,7.734366 12.187683,9.1370481"
     id="path3384-6-7"
     inkscape:connector-type="polyline"
     inkscape:connector-curvature="0" />
  <path
     style="fill:none;fill-rule:evenodd;stroke:#1b4b73;stroke-width:1.01333333;stroke-linecap:round;stroke-linejoin:miter;stroke-miterlimit:4;stroke-dasharray:none;stroke-opacity:1"
     d="m 10.785747,7.734366 1.401936,1.4026821"
     id="path3384-6-2-5"
     inkscape:connector-type="polyline"
     inkscape:connector-curvature="0" />
</svg>
