<?xml version="1.0" encoding="UTF-8" standalone="no"?>
<!-- Created with Inkscape (http://www.inkscape.org/) -->

<svg
   width="30"
   height="30"
   viewBox="0 0 7.9374995 7.9374995"
   version="1.1"
   id="svg273"
   inkscape:version="1.1.2 (0a00cf5339, 2022-02-04)"
   sodipodi:docname="action_entity.svg"
   xmlns:inkscape="http://www.inkscape.org/namespaces/inkscape"
   xmlns:sodipodi="http://sodipodi.sourceforge.net/DTD/sodipodi-0.dtd"
   xmlns="http://www.w3.org/2000/svg"
   xmlns:svg="http://www.w3.org/2000/svg">
  <sodipodi:namedview
     id="namedview275"
     pagecolor="#ffffff"
     bordercolor="#666666"
     borderopacity="1.0"
     inkscape:pageshadow="2"
     inkscape:pageopacity="0.0"
     inkscape:pagecheckerboard="0"
     inkscape:document-units="mm"
     showgrid="false"
     units="px"
     showguides="true"
     inkscape:guide-bbox="true"
     inkscape:zoom="1.2151235"
     inkscape:cx="660.01522"
     inkscape:cy="-496.24586"
     inkscape:window-width="2560"
     inkscape:window-height="1366"
     inkscape:window-x="0"
     inkscape:window-y="25"
     inkscape:window-maximized="1"
     inkscape:current-layer="layer1">
    <sodipodi:guide
       position="0.95311589,10.173207"
       orientation="1,0"
       id="guide643" />
    <sodipodi:guide
       position="3.6375857,1.4154969"
       orientation="1,0"
       id="guide645" />
    <sodipodi:guide
       position="-3.6082043,6.2013079"
       orientation="1,0"
       id="guide3587" />
    <sodipodi:guide
       position="-6.1752398,2.0283832"
       orientation="0,-1"
       id="guide3589" />
    <sodipodi:guide
       position="5.2444938,5.2719495"
       orientation="1,0"
       id="guide4925" />
    <sodipodi:guide
       position="4.1955949,7.0040759"
       orientation="0,-1"
       id="guide4175" />
    <sodipodi:guide
       position="3.7240716,1.162961"
       orientation="0,-1"
       id="guide4177" />
    <sodipodi:guide
       position="3.550859,6.0802752"
       orientation="0,-1"
       id="guide5777" />
    <sodipodi:guide
       position="5.2444938,0.8165357"
       orientation="0,-1"
       id="guide6342" />
    <sodipodi:guide
       position="8.1381041,-1.7111891"
       orientation="1,0"
       id="guide6813" />
    <sodipodi:guide
       position="13.853829,-1.3437496"
       orientation="1,0"
       id="guide6815" />
    <sodipodi:guide
       position="10.995967,7.9374995"
       orientation="1,0"
       id="guide6817" />
  </sodipodi:namedview>
  <defs
     id="defs270" />
  <g
     inkscape:label="Layer 1"
     inkscape:groupmode="layer"
     id="layer1">
    <path
       id="path3940-8"
       style="stroke-width:0.50270833;stroke-miterlimit:4;stroke-dasharray:none;fill:#1b4b73;fill-opacity:1"
       d="M 0.57492834,-9.5889497e-4 A 0.56686291,0.56686291 0 0 0 0.00815734,0.56581211 V 7.3681312 a 0.56686291,0.56686291 0 0 0 0.566771,0.567303 H 5.1096304 a 0.56686291,0.56686291 0 0 0 0.566772,-0.567303 V 0.56581211 A 0.56686291,0.56686291 0 0 0 5.1096304,-9.5889497e-4 Z M 0.97135034,0.49576211 H 4.7068414 a 0.46694651,0.49465285 0 0 1 0.467002,0.49459805 V 6.9260712 a 0.46694651,0.49465285 0 0 1 -0.467002,0.494598 H 0.97135034 a 0.46694651,0.49465285 0 0 1 -0.467003,-0.494598 V 0.99036016 a 0.46694651,0.49465285 0 0 1 0.467003,-0.49459805 z" />
    <path
       style="fill:#1b4b73;fill-opacity:1;stroke-width:0.0749521;stroke-miterlimit:4;stroke-dasharray:none"
       d="m 1.0588108,0.85306145 a 0.10000678,0.07142574 0 0 0 -0.09999,0.0714141 V 1.7815799 a 0.10000678,0.07142574 0 0 0 0.09999,0.071482 h 0.8000187 a 0.10000678,0.07142574 0 0 0 0.099991,-0.071482 V 0.92447564 a 0.10000678,0.07142574 0 0 0 -0.099991,-0.0714141 z"
       id="path3940-8-4-2" />
    <path
       style="fill:#1b4b73;fill-opacity:1;stroke-width:0.0749521;stroke-miterlimit:4;stroke-dasharray:none"
       d="m 3.8262913,0.8564403 a 0.10000678,0.07142574 0 0 0 -0.09999,0.0714141 v 0.8571044 a 0.10000678,0.07142574 0 0 0 0.09999,0.071482 H 4.62631 A 0.10000678,0.07142574 0 0 0 4.726301,1.7849588 V 0.92785444 A 0.10000678,0.07142574 0 0 0 4.62631,0.85644036 Z"
       id="path3940-8-4-2-3" />
    <path
       style="fill:#1b4b73;fill-opacity:1;stroke-width:0.0749521;stroke-miterlimit:4;stroke-dasharray:none"
       d="m 2.4369639,0.8564403 a 0.10000678,0.07142574 0 0 0 -0.09999,0.071414 v 0.8571045 a 0.10000678,0.07142574 0 0 0 0.09999,0.071482 h 0.8000187 a 0.10000678,0.07142574 0 0 0 0.099991,-0.071482 V 0.92785454 a 0.10000678,0.07142574 0 0 0 -0.099991,-0.071414 z"
       id="path3940-8-4-2-3-6" />
    <path
       style="fill:#1b4b73;fill-opacity:1;stroke-width:0.0749521;stroke-miterlimit:4;stroke-dasharray:none"
       d="m 1.058968,2.1664749 a 0.10000678,0.07142574 0 0 0 -0.09999,0.071414 v 0.8571042 a 0.10000678,0.07142574 0 0 0 0.09999,0.071482 h 0.8000186 a 0.10000678,0.07142574 0 0 0 0.099991,-0.071482 v -0.857104 a 0.10000678,0.07142574 0 0 0 -0.099991,-0.071414 z"
       id="path3940-8-4-2-8" />
    <path
       style="fill:#1b4b73;fill-opacity:1;stroke-width:0.0749521;stroke-miterlimit:4;stroke-dasharray:none"
       d="m 2.437121,2.1698538 a 0.10000678,0.07142574 0 0 0 -0.09999,0.071414 v 0.8571043 a 0.10000678,0.07142574 0 0 0 0.09999,0.071482 h 0.8000187 a 0.10000678,0.07142574 0 0 0 0.099991,-0.071482 V 2.241268 A 0.10000678,0.07142574 0 0 0 3.2371397,2.169854 Z"
       id="path3940-8-4-2-3-6-2" />
    <path
       style="fill:#1b4b73;fill-opacity:1;stroke-width:0.0749521;stroke-miterlimit:4;stroke-dasharray:none"
       d="m 1.0591251,3.4798882 a 0.10000678,0.07142574 0 0 0 -0.09999,0.071414 v 0.8571042 a 0.10000678,0.07142574 0 0 0 0.09999,0.071482 h 0.8000186 a 0.10000678,0.07142574 0 0 0 0.099991,-0.071482 v -0.857104 a 0.10000678,0.07142574 0 0 0 -0.099991,-0.071414 z"
       id="path3940-8-4-2-8-8" />
    <path
       style="fill:#1b4b73;fill-opacity:1;stroke-width:0.0749521;stroke-miterlimit:4;stroke-dasharray:none"
       d="m 2.4372781,3.4832671 a 0.10000678,0.07142574 0 0 0 -0.09999,0.071414 v 0.8571043 a 0.10000678,0.07142574 0 0 0 0.09999,0.071482 h 0.8000187 a 0.10000678,0.07142574 0 0 0 0.099991,-0.071482 V 3.5546813 a 0.10000678,0.07142574 0 0 0 -0.099991,-0.071414 z"
       id="path3940-8-4-2-3-6-2-0" />
    <path
       style="fill:#1b4b73;fill-opacity:1;stroke-width:0.0749521;stroke-miterlimit:4;stroke-dasharray:none"
       d="m 1.0592823,4.7933015 a 0.10000678,0.07142574 0 0 0 -0.09999,0.071414 v 0.8571042 a 0.10000678,0.07142574 0 0 0 0.09999,0.071482 h 0.8000186 a 0.10000678,0.07142574 0 0 0 0.099991,-0.071482 v -0.857104 a 0.10000678,0.07142574 0 0 0 -0.099991,-0.071414 z"
       id="path3940-8-4-2-8-8-2" />
    <path
       style="fill:#1b4b73;fill-opacity:1;stroke-width:0.0749521;stroke-miterlimit:4;stroke-dasharray:none"
       d="m 1.0594394,6.1067148 a 0.10000678,0.07142574 0 0 0 -0.09999,0.071414 V 7.035233 a 0.10000678,0.07142574 0 0 0 0.09999,0.071482 H 1.859458 A 0.10000678,0.07142574 0 0 0 1.959449,7.035233 V 6.178129 A 0.10000678,0.07142574 0 0 0 1.859458,6.106715 Z"
       id="path3940-8-4-2-8-8-2-4" />
    <path
       style="fill:none;fill-rule:evenodd;stroke:#1b4b73;stroke-width:1.9939;stroke-linecap:round;stroke-linejoin:miter;stroke-miterlimit:4;stroke-dasharray:none;stroke-opacity:1"
       d="m 3.2412696,6.2225736 3.7060965,-0.0061"
       id="path3384-8-8-8-3-1-3-5"
       inkscape:connector-type="polyline"
       inkscape:connector-curvature="0" />
    <path
       style="fill:none;fill-rule:evenodd;stroke:#1b4b73;stroke-width:2.99197;stroke-linecap:round;stroke-linejoin:miter;stroke-miterlimit:4;stroke-dasharray:none;stroke-opacity:1"
       d="M 5.1437698,4.1973079 5.1357404,3.6892785"
       id="path3384-8-8-8-3-1-3-5-4"
       inkscape:connector-type="polyline"
       inkscape:connector-curvature="0" />
  </g>
</svg>
